<svg xmlns="http://www.w3.org/2000/svg" viewBox="0 0 338.02 120.97"><defs><style>.cls-1{fill:#1fc9ff;}.cls-2{fill:#fff;}</style></defs><g id="Layer_2" data-name="Layer 2"><g id="Layer_1-2" data-name="Layer 1"><path class="cls-1" d="M15.52,22.58V42.67a3.94,3.94,0,0,0,1,3,4.93,4.93,0,0,0,3.41.94h4.88V55.5h-6.6Q5,55.5,5,42.6v-20H0V14H5V3.67H15.52V14h9.31v8.63Z"/><path class="cls-1" d="M28.46,23.4a18.43,18.43,0,0,1,6.83-7.5,18.14,18.14,0,0,1,9.63-2.63,16.93,16.93,0,0,1,8.14,1.88,16.49,16.49,0,0,1,5.59,4.73V14H69.22V55.5H58.65V49.42a15.45,15.45,0,0,1-5.59,4.84,17,17,0,0,1-8.21,1.91,17.64,17.64,0,0,1-9.56-2.7,18.87,18.87,0,0,1-6.83-7.61A24.46,24.46,0,0,1,26,34.58,24.13,24.13,0,0,1,28.46,23.4Zm28.69,4.76a10.64,10.64,0,0,0-4-4.2,10.89,10.89,0,0,0-5.48-1.46,10.51,10.51,0,0,0-9.41,5.59,13.09,13.09,0,0,0-1.54,6.49,13.53,13.53,0,0,0,1.54,6.56,11.17,11.17,0,0,0,4,4.31A10.29,10.29,0,0,0,47.62,47a10.89,10.89,0,0,0,5.48-1.46,10.64,10.64,0,0,0,4-4.2,13.51,13.51,0,0,0,1.5-6.57A13.47,13.47,0,0,0,57.15,28.16Z"/><path class="cls-1" d="M82.5,54.34a16.17,16.17,0,0,1-6.41-5,12.62,12.62,0,0,1-2.59-7H84.07a5.74,5.74,0,0,0,2.37,4,8.18,8.18,0,0,0,5.13,1.57,7.9,7.9,0,0,0,4.69-1.2A3.6,3.6,0,0,0,98,43.65a3.26,3.26,0,0,0-2.06-3,39.62,39.62,0,0,0-6.57-2.21,55.86,55.86,0,0,1-7.61-2.32,13.23,13.23,0,0,1-5.1-3.68,9.89,9.89,0,0,1-2.14-6.68,10.85,10.85,0,0,1,2-6.3,13.56,13.56,0,0,1,5.7-4.5,21.56,21.56,0,0,1,8.74-1.65q7.42,0,11.85,3.72a13.74,13.74,0,0,1,4.87,10H97.57a5.43,5.43,0,0,0-2.06-3.94,9.31,9.31,0,0,0-9.3-.41,3.37,3.37,0,0,0-1.54,2.93,3.42,3.42,0,0,0,2.1,3.18A32.39,32.39,0,0,0,93.3,31a55.22,55.22,0,0,1,7.42,2.33A13.22,13.22,0,0,1,105.79,37,10.24,10.24,0,0,1,108,43.65a11,11,0,0,1-2,6.45,13,13,0,0,1-5.7,4.46,21.48,21.48,0,0,1-8.66,1.61A22,22,0,0,1,82.5,54.34Z"/><path class="cls-1" d="M137.47,55.5l-14.1-17.7V55.5h-10.5V0h10.5V31.58L137.32,14H151L132.67,34.8l18.45,20.7Z"/><path class="cls-2" d="M27.75,60.11a15,15,0,0,1,5.55,4.77V59H43.88V100.8a22.27,22.27,0,0,1-2.33,10.31,17.25,17.25,0,0,1-7,7.2A22.3,22.3,0,0,1,23.33,121q-8.86,0-14.52-4.12A15.3,15.3,0,0,1,2.4,105.6H12.83a7.72,7.72,0,0,0,3.56,4.54A12.42,12.42,0,0,0,23,111.83a10.31,10.31,0,0,0,7.43-2.74q2.85-2.75,2.85-8.29V94.35a15.9,15.9,0,0,1-5.59,4.87,16.65,16.65,0,0,1-8.13,2,17.8,17.8,0,0,1-9.6-2.7,18.74,18.74,0,0,1-6.87-7.61A24.46,24.46,0,0,1,.6,79.58,24.13,24.13,0,0,1,3.11,68.4a18.43,18.43,0,0,1,6.83-7.5,18.15,18.15,0,0,1,9.64-2.63A17.51,17.51,0,0,1,27.75,60.11Zm4.05,13A10.64,10.64,0,0,0,27.75,69a10.86,10.86,0,0,0-5.48-1.46,10.69,10.69,0,0,0-5.39,1.42,10.84,10.84,0,0,0-4,4.17,13.09,13.09,0,0,0-1.53,6.49,13.53,13.53,0,0,0,1.53,6.56,11.17,11.17,0,0,0,4.05,4.31A10.29,10.29,0,0,0,22.27,92a10.86,10.86,0,0,0,5.48-1.46,10.64,10.64,0,0,0,4.05-4.2,15.12,15.12,0,0,0,0-13.13Z"/><path class="cls-2" d="M89.62,59V100.5H79.05V95.25a13.89,13.89,0,0,1-5.29,4.24A16.48,16.48,0,0,1,66.67,101,17.53,17.53,0,0,1,58.05,99a14.56,14.56,0,0,1-5.89-6.07A20.14,20.14,0,0,1,50,83.33V59h10.5V81.83q0,4.94,2.48,7.61a8.78,8.78,0,0,0,6.75,2.66,8.87,8.87,0,0,0,6.82-2.66q2.48-2.67,2.48-7.61V59Z"/><path class="cls-2" d="M96,68.4a18.4,18.4,0,0,1,6.82-7.5,18.2,18.2,0,0,1,9.64-2.63,17,17,0,0,1,8.14,1.88,16.54,16.54,0,0,1,5.58,4.73V59H136.8V100.5H126.22V94.42a15.5,15.5,0,0,1-5.58,4.84,17.08,17.08,0,0,1-8.22,1.91,17.66,17.66,0,0,1-9.56-2.7A18.85,18.85,0,0,1,96,90.86a24.34,24.34,0,0,1-2.52-11.28A24,24,0,0,1,96,68.4Zm28.68,4.76a10.64,10.64,0,0,0-4-4.2,10.85,10.85,0,0,0-5.47-1.46,10.51,10.51,0,0,0-9.41,5.59,13,13,0,0,0-1.54,6.49,13.42,13.42,0,0,0,1.54,6.56,11,11,0,0,0,4,4.31A10.27,10.27,0,0,0,115.2,92a10.85,10.85,0,0,0,5.47-1.46,10.64,10.64,0,0,0,4-4.2,15.12,15.12,0,0,0,0-13.13Z"/><path class="cls-2" d="M159.11,60.22a14.81,14.81,0,0,1,7.46-1.87v11H163.8q-5,0-7.46,2.32t-2.52,8.1v20.7h-10.5V59h10.5V65.4A14.91,14.91,0,0,1,159.11,60.22Z"/><path class="cls-2" d="M169.69,68.4a18.12,18.12,0,0,1,16.53-10.13A17.61,17.61,0,0,1,194,60a15.38,15.38,0,0,1,5.85,4.68V45h10.65v55.5H199.8V94.35a14.24,14.24,0,0,1-5.48,5,17.13,17.13,0,0,1-8.17,1.87,17.85,17.85,0,0,1-9.6-2.7,18.72,18.72,0,0,1-6.86-7.61,24.34,24.34,0,0,1-2.52-11.28A24,24,0,0,1,169.69,68.4Zm28.68,4.76a10.64,10.64,0,0,0-4.05-4.2,10.85,10.85,0,0,0-5.47-1.46,10.51,10.51,0,0,0-9.41,5.59,13,13,0,0,0-1.54,6.49,13.42,13.42,0,0,0,1.54,6.56,11,11,0,0,0,4.05,4.31,10.27,10.27,0,0,0,5.36,1.5,10.85,10.85,0,0,0,5.47-1.46,10.64,10.64,0,0,0,4.05-4.2,15.12,15.12,0,0,0,0-13.13Z"/><path class="cls-2" d="M217.69,52.24a6.16,6.16,0,0,1,0-8.78,6.92,6.92,0,0,1,9.22,0,6.16,6.16,0,0,1,0,8.78,6.92,6.92,0,0,1-9.22,0ZM227.47,59V100.5H217V59Z"/><path class="cls-2" d="M233.88,68.4a18.43,18.43,0,0,1,6.83-7.5,18.17,18.17,0,0,1,9.64-2.63,17,17,0,0,1,8.14,1.88,16.54,16.54,0,0,1,5.58,4.73V59h10.58V100.5H264.07V94.42a15.5,15.5,0,0,1-5.58,4.84,17.08,17.08,0,0,1-8.22,1.91,17.64,17.64,0,0,1-9.56-2.7,18.87,18.87,0,0,1-6.83-7.61,24.46,24.46,0,0,1-2.51-11.28A24.13,24.13,0,0,1,233.88,68.4Zm28.69,4.76a10.64,10.64,0,0,0-4.05-4.2,10.85,10.85,0,0,0-5.47-1.46,10.73,10.73,0,0,0-5.4,1.42,10.84,10.84,0,0,0-4,4.17,13.09,13.09,0,0,0-1.53,6.49,13.53,13.53,0,0,0,1.53,6.56,11.17,11.17,0,0,0,4.05,4.31,10.33,10.33,0,0,0,5.37,1.5,10.85,10.85,0,0,0,5.47-1.46,10.64,10.64,0,0,0,4.05-4.2,15.12,15.12,0,0,0,0-13.13Z"/><path class="cls-2" d="M316.2,63c3.05,3.12,4.57,7.49,4.57,13.08V100.5h-10.5v-23q0-5-2.47-7.61a8.75,8.75,0,0,0-6.75-2.67,9,9,0,0,0-6.87,2.67q-2.51,2.66-2.51,7.61v23h-10.5V59h10.5v5.17A14.57,14.57,0,0,1,297,59.89a16.57,16.57,0,0,1,7.17-1.54Q311.63,58.35,316.2,63Z"/><path class="cls-2" d="M327,99.26a6.15,6.15,0,0,1,0-8.77,6.48,6.48,0,0,1,4.69-1.77,6.24,6.24,0,0,1,4.57,1.77,6.24,6.24,0,0,1,0,8.77,6.24,6.24,0,0,1-4.57,1.76A6.47,6.47,0,0,1,327,99.26Z"/></g></g></svg>
